<mxfile host="app.diagrams.net" modified="2023-04-25T04:41:41.568Z" agent="Mozilla/5.0 (Windows NT 10.0; Win64; x64) AppleWebKit/537.36 (KHTML, like Gecko) Chrome/110.0.0.0 Safari/537.36 Edg/110.0.1587.41" version="21.2.1" etag="tv2T9z4i1Ho_OdSPmtgy" type="github">
  <diagram name="第 1 页" id="6YMK3nFO6SEpb3KSEMJj">
    <mxGraphModel>
      <root>
        <mxCell id="0" />
        <mxCell id="1" parent="0" />
      </root>
    </mxGraphModel>
  </diagram>
</mxfile>
